Patient4_TMGait_0pt4_03_left_34_EMG.mot
version=1
nRows=16
nColumns=33
inDegrees=no
endheader
time	1LAddLong	2LGlutMax	3LGlutMed	4LIliopsoas	5LSemiMemb	6LBicFemLong	7LRecFem	8LVastMed	9LVastLat	10LGasMed	11LTibAnt	12lTibPost	13LPeroneusLong	14LSol	15LExtDigLong	16LFlexDigLong	17RAddLong	18RGlutMax	19RGlutMed	20RIliopsoas	21RSemiMemb	22RBicFemLong	23RRecFem	24RVastMed	25RVastLat	26RGasMed	27RTibAnt	28RTibPost	29RPeroneusLong	30RSol	31RExtDigLong	32RFlexDigLong
44.93	0.009003	0.88013	0.031128	0.006561	0.001678	0.015717	0.00412	-0.016785	-0.15762	0.047607	0.022736	0.005035	-0.031281	-0.00061	0.086365	0.040283	0.012665	-0.057831	0.5777	-0.047302	0.16235	-0.00824	-0.030975	0.018158	-0.009766	-0.005493	0.014954	0.015869	0.0737	0.26047	-0.000153	-0.012512
44.931	0.001526	0.88394	0.012054	0.012665	-0.000153	0.025177	0.000763	-0.00885	-0.15793	0.027008	-0.037384	-0.002136	0.031281	0.054169	0.089264	0.035858	0.002289	0.017395	0.61951	0.0354	0.14862	-0.043945	-0.018616	0.002136	-0.020294	0.005493	-0.024872	0.013733	0.36636	0.070496	-0.00061	-0.009766
44.932	0.008087	0.86868	0.005951	0.013733	0.006256	0.001068	0.010071	-0.006714	-0.1593	0.042725	-0.017548	0.008087	-0.027618	0.063019	0.078125	0.032806	0.029297	-0.005341	0.16296	0.063629	0.10071	-0.081787	0.023193	-0.040436	-0.012817	0.0354	-0.02594	-0.020905	0.36774	-0.077972	0.001678	-0.010681
44.933	0.001068	0.84503	0.030365	0.013275	0.003204	0.02533	0.04425	0.001526	-0.17685	0.063934	0.059357	-0.000763	-0.038147	-0.011902	0.15991	0.026703	0.076447	0.017853	0.013275	0.045471	0.103	-0.11032	-0.0383	-0.059357	0.000305	0.028229	-0.037384	-0.038605	0.57404	-0.12863	0.000305	-0.002136
44.934	0.002441	0.83542	0.034637	0.01297	0.002747	0.015259	0.07019	0.000305	-0.16144	0.074158	0.18753	0.005798	-0.054779	-0.001221	0.020599	0.035248	0.055847	0.02182	-0.00885	0.007935	0.099945	-0.030212	-0.020599	-0.035553	0.028687	0.007324	-0.027771	-0.064392	0.5336	0.019379	0.002441	0.001984
44.935	-0.000153	0.82336	0.040894	0.013275	-0.002594	0.002136	0.06485	-0.000153	-0.16663	0.045624	0.11002	-0.010834	-0.007019	0.01236	0.45593	0.023804	0.011749	-0.023956	0.43793	-0.02533	-0.12543	0.050201	-0.034027	-0.029755	0.017395	-0.19012	0.00061	-0.093842	0.31937	-0.004425	0.001068	-0.006256
44.936	-0.001984	0.8316	0.043945	0.016632	0.002441	-0.003662	0.079803	-0.000305	-0.16785	0.009918	0.004883	0.003357	0.0354	0.009918	0.43488	0.043793	-0.045929	0.000305	0.30868	-0.021667	-0.1683	0.051575	-0.068817	-0.040131	0.001068	-0.14908	0.022125	0.022125	-0.30289	-0.51437	-0.000458	-0.010376
44.937	0.008087	0.79239	0.047302	0.018311	-0.003357	-0.003967	0.077972	0.005798	-0.18433	0.014038	-0.03952	0	-0.015717	0.006256	-0.35904	0.023499	-0.041504	-0.029755	0.6012	-0.025177	-0.20325	-0.079651	-0.12512	-0.047455	-0.005341	-0.006714	0.012512	0.02655	-0.70496	-0.57053	0.001373	-0.008545
44.938	0.001984	0.74509	0.050812	0.015869	0.006714	-0.011444	0.075378	0.010376	-0.17853	0.025787	-0.086975	-0.007782	-0.044403	-0.016174	-0.42618	0.028076	-0.011597	-0.10101	0.49332	-0.019684	-0.082397	-0.15274	-0.09613	0.007324	-0.000458	0.013733	-0.006409	-0.12299	-0.80337	0.20447	-0.004425	-0.001984
44.939	0.010681	0.70374	0.058746	0.001068	0.003204	0.01297	0.052643	0.008545	-0.17349	0.032043	-0.1297	0.000153	-0.054169	-0.050507	-0.19577	0.015717	0.003357	-0.065613	0.40985	0.004578	-0.08667	-0.11353	-0.03067	0.018921	0.011749	0.00824	-0.027771	-0.17975	-0.57053	0.74921	-0.000458	-0.015259
44.94	0.00473	0.6282	0.036774	0.002899	0.002594	0.005493	0.067749	0.007172	-0.17746	0.03006	-0.11932	-0.000458	-0.023041	-0.064697	-0.15976	0.024109	-0.014496	-0.033722	0.52322	0.015564	-0.10346	0.002747	0.005341	-0.012817	-0.00824	0.02182	-0.016479	0.30746	-0.42038	0.32471	0.00061	-0.005035
44.941	0.011292	0.61188	-0.019836	0.009766	0.006714	-0.011292	0.054626	0.011139	-0.18143	0.013275	-0.088043	-0.007782	0.010223	-0.018158	-0.043945	0.037842	-0.008087	-0.056	0.34103	0.018921	0.1207	0.10788	-0.034637	-0.045624	0.001373	0.059967	0.001526	-0.074158	-0.14099	-0.061035	-0.00061	-0.011292
44.942	0.00412	0.56808	-0.013428	0.017395	0.002747	0.013428	0.067902	0.012207	-0.17944	0.021667	-0.044708	-0.000916	-0.010986	0.00473	-0.013123	0.003357	0.004578	-0.079956	0.39642	-0.029907	0.14526	0.15259	0.013733	-0.024719	0.004272	0.003967	0.028534	-0.11505	0.2214	-0.48294	0.00824	-0.011902
44.943	0.003204	0.55862	-0.010376	-0.003204	0.002136	0.017242	0.070953	0.010681	-0.18188	0.006256	0.047913	-0.004425	-0.023804	-0.016174	-0.068054	0.021515	0.016174	-0.039368	0.44922	-0.021515	0.12711	0.090637	-0.038452	0.055542	0.018616	-0.015717	0.032196	0.091858	0.36453	-0.29098	0.001373	-0.011597
44.944	0.00824	0.56915	-0.00061	0.002441	0.002136	0.041046	0.078583	0.016022	-0.17777	0.008087	0.03479	-0.001221	-0.034332	-0.006714	0.047913	0.01358	-0.010986	0.004272	0.37155	-0.037079	-0.23407	0.062866	-0.066681	0.093842	0.015106	-0.043945	-0.028534	0.095673	0.2562	-0.92682	0.000458	-0.001373
44.945	0.011139	0.54443	-0.013428	0.000153	0.003967	0.039215	0.068054	0.010986	-0.17731	0.019989	0.00351	-0.016937	-0.061493	-0.015717	0.033112	0.026703	-0.024719	-0.00061	0.023956	-0.022736	-0.31128	-0.027466	-0.037231	0.10803	0.023041	-0.059662	-0.000153	-0.18753	0.090637	-1.1125	0.003967	-0.009918
